<svg width="57" height="57" viewBox="0 0 57 57" fill="none" xmlns="http://www.w3.org/2000/svg">
<rect width="57" height="57" rx="8" fill="#EAEBF0"/>
<path d="M43.5 40.5H17.25C15.5312 40.5 14.0469 39.9531 12.7969 38.7031C11.5469 37.4531 11 35.9688 11 34.25V18H9.75C8.65625 18 7.79688 18.3906 7.09375 19.0938C6.3125 19.875 6 20.7344 6 21.75V41.75C6 42.8438 6.3125 43.7031 7.09375 44.4062C7.79688 45.1875 8.65625 45.5 9.75 45.5H39.75C40.7656 45.5 41.625 45.1875 42.4062 44.4062C43.1094 43.7031 43.5 42.8438 43.5 41.75V40.5ZM51 34.25C51 35.3438 50.6094 36.2031 49.9062 36.9062C49.125 37.6875 48.2656 38 47.25 38H17.25C16.1562 38 15.2969 37.6875 14.5938 36.9062C13.8125 36.2031 13.5 35.3438 13.5 34.25V14.25C13.5 13.2344 13.8125 12.375 14.5938 11.5938C15.2969 10.8906 16.1562 10.5 17.25 10.5H47.25C48.2656 10.5 49.125 10.8906 49.9062 11.5938C50.6094 12.375 51 13.2344 51 14.25V34.25ZM26 18C26 16.9844 25.6094 16.125 24.9062 15.3438C24.125 14.6406 23.2656 14.25 22.25 14.25C21.1562 14.25 20.2969 14.6406 19.5938 15.3438C18.8125 16.125 18.5 16.9844 18.5 18C18.5 19.0938 18.8125 19.9531 19.5938 20.6562C20.2969 21.4375 21.1562 21.75 22.25 21.75C23.2656 21.75 24.125 21.4375 24.9062 20.6562C25.6094 19.9531 26 19.0938 26 18ZM18.5 29.25V33H46V24.25L39.125 17.375C38.9688 17.2188 38.7344 17.1406 38.5 17.1406C38.1875 17.1406 38.0312 17.2188 37.875 17.375L27.25 28L24.125 24.875C23.9688 24.7188 23.7344 24.6406 23.5 24.6406C23.1875 24.6406 23.0312 24.7188 22.875 24.875L18.5 29.25Z" fill="#9BA2B3"/>
</svg>
